# xmcd
#
# Track frame offsets:
#	150
#	20858
#	43322
#	58905
#	81579
#	100114
#	121995
#	145436
#	177498
#	193559
#	219472
#	241618
#	266134
#
# Disc length: 3722 seconds
#
# Revision: 1
# Processed by: cddbd v1.5.2PL0 Copyright (c) Steve Scherf et al.
# Submitted via: EZCDAudioConverter 3.1.2.1
#
DISCID=c90e880d
DTITLE=Graziano Romani - My Name Is Tex
DYEAR=2009
DGENRE=Pop Folk
TTITLE0=My Name Is Tex
TTITLE1=Goldeena
TTITLE2=Carson
TTITLE3=Texas Rangers
TTITLE4=Mephisto
TTITLE5=Red River Valley
TTITLE6=So Long, Lilyth
TTITLE7=Showdown With El Muerto
TTITLE8=Wait For The Wagon
TTITLE9=The Street Of Laredo
TTITLE10=Four Brave Riders
TTITLE11=Quien Sabe Hombre?
TTITLE12=My Name Is Tex (Reprise)
EXTD=
EXTT0=
EXTT1=
EXTT2=
EXTT3=
EXTT4=
EXTT5=
EXTT6=
EXTT7=
EXTT8=
EXTT9=
EXTT10=
EXTT11=
EXTT12=
PLAYORDER=
